<mxfile host="app.diagrams.net" modified="2020-10-03T12:51:59.521Z" agent="5.0 (Windows NT 10.0; Win64; x64) AppleWebKit/537.36 (KHTML, like Gecko) Chrome/85.0.4183.83 YaBrowser/20.9.0.933 Yowser/2.5 Safari/537.36" etag="UziNE9WFfZNxyy43nwN_" version="13.7.7" type="github">
  <diagram name="Page-1" id="e7e014a7-5840-1c2e-5031-d8a46d1fe8dd">
    <mxGraphModel dx="782" dy="465" grid="1" gridSize="10" guides="1" tooltips="1" connect="1" arrows="1" fold="1" page="1" pageScale="1" pageWidth="1169" pageHeight="826" background="#ffffff" math="0" shadow="0">
      <root>
        <mxCell id="0" />
        <mxCell id="1" parent="0" />
        <mxCell id="8fiQGmbdgdOTvZni-vrx-1" value="Circle" style="swimlane;fontStyle=1;align=center;verticalAlign=top;childLayout=stackLayout;horizontal=1;startSize=26;horizontalStack=0;resizeParent=1;resizeParentMax=0;resizeLast=0;collapsible=1;marginBottom=0;" vertex="1" parent="1">
          <mxGeometry x="70" y="50" width="210" height="280" as="geometry" />
        </mxCell>
        <mxCell id="8fiQGmbdgdOTvZni-vrx-2" value="- radius : double&#xa;- center : Point" style="text;strokeColor=none;fillColor=none;align=left;verticalAlign=top;spacingLeft=4;spacingRight=4;overflow=hidden;rotatable=0;points=[[0,0.5],[1,0.5]];portConstraint=eastwest;" vertex="1" parent="8fiQGmbdgdOTvZni-vrx-1">
          <mxGeometry y="26" width="210" height="44" as="geometry" />
        </mxCell>
        <mxCell id="8fiQGmbdgdOTvZni-vrx-3" value="" style="line;strokeWidth=1;fillColor=none;align=left;verticalAlign=middle;spacingTop=-1;spacingLeft=3;spacingRight=3;rotatable=0;labelPosition=right;points=[];portConstraint=eastwest;" vertex="1" parent="8fiQGmbdgdOTvZni-vrx-1">
          <mxGeometry y="70" width="210" height="8" as="geometry" />
        </mxCell>
        <mxCell id="8fiQGmbdgdOTvZni-vrx-4" value="&lt;&lt;constructor&gt;&gt;&#xa;+ Circle (double, double, double)&#xa;&#xa;&lt;&lt;setters&gt;&gt;&#xa;+ setRadius(double): void&#xa;+ setCenter(double, double): void&#xa;&#xa;&lt;&lt;getters&gt;&gt;&#xa;+getRadius():double&#xa;+getCenter(): Point&#xa;&#xa;&lt;&lt;common methods&gt;&gt;&#xa;+ toString():String&#xa;" style="text;strokeColor=none;fillColor=none;align=left;verticalAlign=top;spacingLeft=4;spacingRight=4;overflow=hidden;rotatable=0;points=[[0,0.5],[1,0.5]];portConstraint=eastwest;" vertex="1" parent="8fiQGmbdgdOTvZni-vrx-1">
          <mxGeometry y="78" width="210" height="202" as="geometry" />
        </mxCell>
        <mxCell id="8fiQGmbdgdOTvZni-vrx-5" value="Point" style="swimlane;fontStyle=1;align=center;verticalAlign=top;childLayout=stackLayout;horizontal=1;startSize=26;horizontalStack=0;resizeParent=1;resizeParentMax=0;resizeLast=0;collapsible=1;marginBottom=0;" vertex="1" parent="1">
          <mxGeometry x="320" y="200" width="190" height="190" as="geometry" />
        </mxCell>
        <mxCell id="8fiQGmbdgdOTvZni-vrx-6" value="+ x: double&#xa;+ y: double" style="text;strokeColor=none;fillColor=none;align=left;verticalAlign=top;spacingLeft=4;spacingRight=4;overflow=hidden;rotatable=0;points=[[0,0.5],[1,0.5]];portConstraint=eastwest;" vertex="1" parent="8fiQGmbdgdOTvZni-vrx-5">
          <mxGeometry y="26" width="190" height="64" as="geometry" />
        </mxCell>
        <mxCell id="8fiQGmbdgdOTvZni-vrx-7" value="" style="line;strokeWidth=1;fillColor=none;align=left;verticalAlign=middle;spacingTop=-1;spacingLeft=3;spacingRight=3;rotatable=0;labelPosition=right;points=[];portConstraint=eastwest;" vertex="1" parent="8fiQGmbdgdOTvZni-vrx-5">
          <mxGeometry y="90" width="190" height="8" as="geometry" />
        </mxCell>
        <mxCell id="8fiQGmbdgdOTvZni-vrx-8" value="&lt;&lt; constructor&gt;&gt;&#xa;+Point(double, double)&#xa;&#xa;&lt;&lt; common methods &gt;&gt;&#xa;+toString():String" style="text;strokeColor=none;fillColor=none;align=left;verticalAlign=top;spacingLeft=4;spacingRight=4;overflow=hidden;rotatable=0;points=[[0,0.5],[1,0.5]];portConstraint=eastwest;" vertex="1" parent="8fiQGmbdgdOTvZni-vrx-5">
          <mxGeometry y="98" width="190" height="92" as="geometry" />
        </mxCell>
      </root>
    </mxGraphModel>
  </diagram>
</mxfile>
